<svg width="27" height="27" viewBox="0 0 27 27" fill="none" xmlns="http://www.w3.org/2000/svg">
<path d="M2.38416 1.85449L22.396 21.8663C22.7757 22.2461 22.989 22.7611 22.989 23.2981C22.989 23.8351 22.7757 24.3502 22.396 24.7299C22.0162 25.1095 21.5012 25.3227 20.9642 25.3227C20.4272 25.3227 19.9122 25.1095 19.5324 24.7299L14.6439 19.7572C14.324 19.4324 14.1446 18.9948 14.1442 18.5389V18.2385C14.1443 18.0083 14.0986 17.7804 14.0098 17.568C13.921 17.3556 13.791 17.1629 13.6271 17.0012L12.996 16.4184C12.7817 16.2207 12.5212 16.08 12.2383 16.0094C11.9555 15.9388 11.6594 15.9405 11.3773 16.0143C10.9326 16.1303 10.4652 16.1281 10.0216 16.0078C9.57795 15.8874 9.1735 15.6532 8.84837 15.3282L4.20811 10.6874C1.45535 7.93468 0.442344 3.77784 2.38416 1.85449Z" stroke="#5B5B5B" stroke-width="2" stroke-linejoin="round"/>
<path d="M20.988 1L16.7921 5.19595C16.4692 5.51876 16.2131 5.90202 16.0383 6.32383C15.8636 6.74564 15.7736 7.19774 15.7736 7.65432V8.46146C15.7736 8.57566 15.7512 8.68874 15.7074 8.79424C15.6637 8.89975 15.5997 8.9956 15.5189 9.07632L14.9046 9.69064M16.6427 11.4288L17.257 10.8145C17.3377 10.7337 17.4336 10.6696 17.5391 10.6259C17.6446 10.5822 17.7577 10.5597 17.8719 10.5597H18.679C19.1356 10.5597 19.5877 10.4698 20.0095 10.295C20.4313 10.1203 20.8146 9.86415 21.1374 9.54127L25.3333 5.34532M23.1607 3.17266L18.8154 7.51798M10.1247 19.2503L4.70827 24.6972C4.30083 25.1045 3.74831 25.3333 3.1722 25.3333C2.59609 25.3333 2.04356 25.1045 1.63613 24.6972C1.22881 24.2898 1 23.7373 1 23.1611C1 22.585 1.22881 22.0325 1.63613 21.6251L6.21392 17.0777" stroke="#5B5B5B" stroke-width="2" stroke-linecap="round" stroke-linejoin="round"/>
</svg>
