<svg width="140" height="22" viewBox="0 0 140 22" fill="none" xmlns="http://www.w3.org/2000/svg">
<rect width="22" height="22" rx="2" fill="#E8A641"/>
<path d="M11.0001 14.8853L15.4673 17.6001L14.2818 12.4835L18.2286 9.0409L13.0313 8.59693L11.0001 3.77148L8.96883 8.59693L3.77148 9.0409L7.71828 12.4835L6.5328 17.6001L11.0001 14.8853Z" fill="white"/>
<rect x="29.334" width="22" height="22" rx="2" fill="#E8A641"/>
<path d="M40.334 14.8853L44.8013 17.6001L43.6158 12.4835L47.5626 9.0409L42.3653 8.59693L40.334 3.77148L38.3028 8.59693L33.1055 9.0409L37.0523 12.4835L35.8668 17.6001L40.334 14.8853Z" fill="white"/>
<rect x="88" width="22" height="22" rx="2" fill="#E8A641"/>
<path d="M99.0001 14.8853L103.467 17.6001L102.282 12.4835L106.229 9.0409L101.031 8.59693L99.0001 3.77148L96.9688 8.59693L91.7715 9.0409L95.7183 12.4835L94.5328 17.6001L99.0001 14.8853Z" fill="white"/>
<rect x="58.668" width="22" height="22" rx="2" fill="#E8A641"/>
<path d="M69.668 14.8853L74.1353 17.6001L72.9498 12.4835L76.8966 9.0409L71.6993 8.59693L69.668 3.77148L67.6368 8.59693L62.4395 9.0409L66.3863 12.4835L65.2008 17.6001L69.668 14.8853Z" fill="white"/>
<rect x="117.332" width="22" height="22" rx="2" fill="#9F9F9F"/>
<path d="M128.332 14.8853L132.799 17.6001L131.614 12.4835L135.561 9.0409L130.363 8.59693L128.332 3.77148L126.301 8.59693L121.104 9.0409L125.05 12.4835L123.865 17.6001L128.332 14.8853Z" fill="white"/>
</svg>
