<svg width="134" height="22" viewBox="0 0 134 22" fill="none" xmlns="http://www.w3.org/2000/svg">
<rect y="0.849609" width="21.1578" height="21.1578" rx="2" fill="#E8A641"/>
<path d="M10.5768 15.1649L14.8731 17.7757L13.733 12.855L17.5287 9.54425L12.5303 9.11728L10.5768 4.47656L8.62338 9.11728L3.625 9.54425L7.42071 12.855L6.2806 17.7757L10.5768 15.1649Z" fill="white"/>
<rect x="28.2109" y="0.849609" width="21.1578" height="21.1578" rx="2" fill="#E8A641"/>
<path d="M38.7917 15.1649L43.0879 17.7757L41.9478 12.855L45.7435 9.54425L40.7452 9.11728L38.7917 4.47656L36.8382 9.11728L31.8398 9.54425L35.6356 12.855L34.4954 17.7757L38.7917 15.1649Z" fill="white"/>
<rect x="84.6328" y="0.849609" width="21.1578" height="21.1578" rx="2" fill="#B8B8B8"/>
<path d="M95.2097 15.1649L99.5059 17.7757L98.3658 12.855L102.162 9.54425L97.1631 9.11728L95.2097 4.47656L93.2562 9.11728L88.2578 9.54425L92.0535 12.855L90.9134 17.7757L95.2097 15.1649Z" fill="white"/>
<rect x="56.4219" y="0.849609" width="21.1578" height="21.1578" rx="2" fill="#B8B8B8"/>
<path d="M66.9987 15.1649L71.295 17.7757L70.1549 12.855L73.9506 9.54425L68.9522 9.11728L66.9987 4.47656L65.0453 9.11728L60.0469 9.54425L63.8426 12.855L62.7025 17.7757L66.9987 15.1649Z" fill="white"/>
<rect x="112.844" y="0.849609" width="21.1578" height="21.1578" rx="2" fill="#B8B8B8"/>
<path d="M123.425 15.1649L127.721 17.7757L126.581 12.855L130.376 9.54425L125.378 9.11728L123.425 4.47656L121.471 9.11728L116.473 9.54425L120.268 12.855L119.128 17.7757L123.425 15.1649Z" fill="white"/>
</svg>
