<svg width="134" height="22" viewBox="0 0 134 22" fill="none" xmlns="http://www.w3.org/2000/svg">
<rect width="21.1578" height="21.1578" rx="2" fill="#E8A641"/>
<path d="M10.5768 14.3153L14.8731 16.9261L13.733 12.0054L17.5287 8.69464L12.5303 8.26767L10.5768 3.62695L8.62338 8.26767L3.625 8.69464L7.42071 12.0054L6.2806 16.9261L10.5768 14.3153Z" fill="white"/>
<rect x="28.2109" width="21.1578" height="21.1578" rx="2" fill="#E8A641"/>
<path d="M38.7917 14.3153L43.0879 16.9261L41.9478 12.0054L45.7435 8.69464L40.7452 8.26767L38.7917 3.62695L36.8382 8.26767L31.8398 8.69464L35.6356 12.0054L34.4954 16.9261L38.7917 14.3153Z" fill="white"/>
<rect x="84.6328" width="21.1578" height="21.1578" rx="2" fill="#E8A641"/>
<path d="M95.2097 14.3153L99.5059 16.9261L98.3658 12.0054L102.162 8.69464L97.1631 8.26767L95.2097 3.62695L93.2562 8.26767L88.2578 8.69464L92.0535 12.0054L90.9134 16.9261L95.2097 14.3153Z" fill="white"/>
<rect x="56.4219" width="21.1578" height="21.1578" rx="2" fill="#E8A641"/>
<path d="M66.9987 14.3153L71.295 16.9261L70.1549 12.0054L73.9506 8.69464L68.9522 8.26767L66.9987 3.62695L65.0453 8.26767L60.0469 8.69464L63.8426 12.0054L62.7025 16.9261L66.9987 14.3153Z" fill="white"/>
<rect x="112.84" width="21.1578" height="21.1578" rx="2" fill="#E8A641"/>
<path d="M123.421 14.3153L127.717 16.9261L126.577 12.0054L130.372 8.69464L125.374 8.26767L123.421 3.62695L121.467 8.26767L116.469 8.69464L120.264 12.0054L119.124 16.9261L123.421 14.3153Z" fill="white"/>
</svg>
