<svg width="134" height="23" viewBox="0 0 134 23" fill="none" xmlns="http://www.w3.org/2000/svg">
<rect y="0.949219" width="21.1578" height="21.1578" rx="2" fill="#E8A641"/>
<path d="M10.5768 15.2645L14.8731 17.8754L13.733 12.9547L17.5287 9.64386L12.5303 9.21689L10.5768 4.57617L8.62338 9.21689L3.625 9.64386L7.42071 12.9547L6.2806 17.8754L10.5768 15.2645Z" fill="white"/>
<rect x="28.2109" y="0.949219" width="21.1578" height="21.1578" rx="2" fill="#E8A641"/>
<path d="M38.7917 15.2645L43.0879 17.8754L41.9478 12.9547L45.7435 9.64386L40.7452 9.21689L38.7917 4.57617L36.8382 9.21689L31.8398 9.64386L35.6356 12.9547L34.4954 17.8754L38.7917 15.2645Z" fill="white"/>
<rect x="84.6328" y="0.949219" width="21.1578" height="21.1578" rx="2" fill="#E8A641"/>
<path d="M95.2097 15.2645L99.5059 17.8754L98.3658 12.9547L102.162 9.64386L97.1631 9.21689L95.2097 4.57617L93.2562 9.21689L88.2578 9.64386L92.0535 12.9547L90.9134 17.8754L95.2097 15.2645Z" fill="white"/>
<rect x="56.4219" y="0.949219" width="21.1578" height="21.1578" rx="2" fill="#E8A641"/>
<path d="M66.9987 15.2645L71.295 17.8754L70.1549 12.9547L73.9506 9.64386L68.9522 9.21689L66.9987 4.57617L65.0453 9.21689L60.0469 9.64386L63.8426 12.9547L62.7025 17.8754L66.9987 15.2645Z" fill="white"/>
<rect x="112.844" y="0.949219" width="21.1578" height="21.1578" rx="2" fill="#B8B8B8"/>
<path d="M123.425 15.2645L127.721 17.8754L126.581 12.9547L130.376 9.64386L125.378 9.21689L123.425 4.57617L121.471 9.21689L116.473 9.64386L120.268 12.9547L119.128 17.8754L123.425 15.2645Z" fill="white"/>
</svg>
