<svg width="134" height="23" viewBox="0 0 134 23" fill="none" xmlns="http://www.w3.org/2000/svg">
<rect y="0.900391" width="21.1578" height="21.1578" rx="2" fill="#E8A641"/>
<path d="M10.5768 15.2157L14.8731 17.8265L13.733 12.9058L17.5287 9.59503L12.5303 9.16806L10.5768 4.52734L8.62338 9.16806L3.625 9.59503L7.42071 12.9058L6.2806 17.8265L10.5768 15.2157Z" fill="white"/>
<rect x="28.2109" y="0.900391" width="21.1578" height="21.1578" rx="2" fill="#E8A641"/>
<path d="M38.7917 15.2157L43.0879 17.8265L41.9478 12.9058L45.7435 9.59503L40.7452 9.16806L38.7917 4.52734L36.8382 9.16806L31.8398 9.59503L35.6356 12.9058L34.4954 17.8265L38.7917 15.2157Z" fill="white"/>
<rect x="84.6328" y="0.900391" width="21.1578" height="21.1578" rx="2" fill="#B8B8B8"/>
<path d="M95.2097 15.2157L99.5059 17.8265L98.3658 12.9058L102.162 9.59503L97.1631 9.16806L95.2097 4.52734L93.2562 9.16806L88.2578 9.59503L92.0535 12.9058L90.9134 17.8265L95.2097 15.2157Z" fill="white"/>
<rect x="56.4219" y="0.900391" width="21.1578" height="21.1578" rx="2" fill="#E8A641"/>
<path d="M66.9987 15.2157L71.295 17.8265L70.1549 12.9058L73.9506 9.59503L68.9522 9.16806L66.9987 4.52734L65.0453 9.16806L60.0469 9.59503L63.8426 12.9058L62.7025 17.8265L66.9987 15.2157Z" fill="white"/>
<rect x="112.844" y="0.900391" width="21.1578" height="21.1578" rx="2" fill="#B8B8B8"/>
<path d="M123.425 15.2157L127.721 17.8265L126.581 12.9058L130.376 9.59503L125.378 9.16806L123.425 4.52734L121.471 9.16806L116.473 9.59503L120.268 12.9058L119.128 17.8265L123.425 15.2157Z" fill="white"/>
</svg>
